# xmcd
#
# Track frame offsets:
#       225
#       12112
#       28595
#       41545
#       58827
#       74047
#       91300
#       106505
#       117575
#       127342
#
# Disc length: 1846 seconds
#
# Revision: 5
# Processed by: cddbd v1.5.2PL0 Copyright (c) Steve Scherf et al.
# Submitted via: FreeDbEdit v0.1
# Normalized: r3:TDELIM( - )
#
DISCID=8b07330a
DTITLE=Various Artist - A Country Christmas, Volume 1
DYEAR=1990
DGENRE=Country
TTITLE0=Ricky Lynn Greg - Santa Claus Is Coming to Town
TTITLE1=Charlie Daniels - Christmastime in Dixie
TTITLE2=Suzy Bogguss - I Heard the Bells on Christmas Day
TTITLE3=Ronnie Milsap - Till the Season Comes 'Round Again
TTITLE4=John Berry - O Come, O Come, Emmanuel
TTITLE5=Tanya Tucker - The Wonder
TTITLE6=Chris LeDoux - 'Twas the Night Before Christmas
TTITLE7=Pirates of the Mississippi - Jingle Bells
TTITLE8=Eddie Rabbitt - Rockin' Around the Christmas Tree
TTITLE9=Merle Haggard - White Christmas
EXTD=YEAR: 1990 ID3G: 2
EXTT0=
EXTT1=
EXTT2=
EXTT3=
EXTT4=
EXTT5=
EXTT6=
EXTT7=
EXTT8=
EXTT9=
PLAYORDER=
